<svg width="34" height="30" viewBox="0 0 34 30" fill="none" xmlns="http://www.w3.org/2000/svg">
    <path
        d="M34 10V6.66667H30.6V3.33333C30.6 1.5 29.07 0 27.2 0H3.4C1.53 0 0 1.5 0 3.33333V26.6667C0 28.5 1.53 30 3.4 30H27.2C29.07 30 30.6 28.5 30.6 26.6667V23.3333H34V20H30.6V16.6667H34V13.3333H30.6V10H34ZM27.2 26.6667H3.4V3.33333H27.2V26.6667ZM6.8 16.6667H15.3V23.3333H6.8V16.6667ZM17 6.66667H23.8V11.6667H17V6.66667ZM6.8 6.66667H15.3V15H6.8V6.66667ZM17 13.3333H23.8V23.3333H17V13.3333Z"
        fill="white" />
</svg>