<svg fill="none" height="60" viewBox="0 0 207 60" width="207" xmlns="http://www.w3.org/2000/svg"><path clip-rule="evenodd" d="m46.2969 1.71387h10.2882c.6235 0 1.1292.50555 1.1292 1.12919v10.28814c0 .6238-.5057 1.1292-1.1292 1.1292h-10.2882c-.6237 0-1.1292-.5054-1.1292-1.1292v-10.28814c0-.62364.5055-1.12919 1.1292-1.12919zm-15.0559 15.05593h10.2882c.6237 0 1.1292.5055 1.1292 1.1292v10.2882c0 .6236-.5055 1.1291-1.1292 1.1291h-10.2882c-.6237 0-1.1292-.5055-1.1292-1.1291v-10.2882c0-.6237.5055-1.1292 1.1292-1.1292zm10.2882 15.0559h-10.2882c-.6237 0-1.1292.5055-1.1292 1.1291v10.2883c0 .6236.5055 1.1292 1.1292 1.1292h10.2882c.6237 0 1.1292-.5056 1.1292-1.1292v-10.2883c0-.6236-.5055-1.1291-1.1292-1.1291zm-40.40001 15.0559h10.28821c.6236 0 1.1292.5055 1.1292 1.1292v10.2882c0 .6234-.5056 1.1292-1.1292 1.1292h-10.28821c-.623633 0-1.12919-.5058-1.12919-1.1292v-10.2882c0-.6237.505557-1.1292 1.12919-1.1292zm30.11181 0h10.2882c.6237 0 1.1292.5055 1.1292 1.1292v10.2882c0 .6234-.5055 1.1292-1.1292 1.1292h-10.2882c-.6237 0-1.1292-.5058-1.1292-1.1292v-10.2882c0-.6237.5055-1.1292 1.1292-1.1292zm-4.7677 0h-10.2882c-.6237 0-1.1292.5055-1.1292 1.1292v10.2882c0 .6234.5055 1.1292 1.1292 1.1292h10.2882c.6237 0 1.1292-.5058 1.1292-1.1292v-10.2882c0-.6237-.5055-1.1292-1.1292-1.1292zm-10.2882-15.0559h10.2882c.6237 0 1.1292.5055 1.1292 1.1291v10.2883c0 .6236-.5055 1.1292-1.1292 1.1292h-10.2882c-.6237 0-1.1292-.5056-1.1292-1.1292v-10.2883c0-.6236.5055-1.1291 1.1292-1.1291zm40.4 15.0559h-10.2882c-.6237 0-1.1292.5055-1.1292 1.1292v10.2882c0 .6234.5055 1.1292 1.1292 1.1292h10.2882c.6235 0 1.1292-.5058 1.1292-1.1292v-10.2882c0-.6237-.5057-1.1292-1.1292-1.1292zm-10.2882-15.0559h10.2882c.6235 0 1.1292.5055 1.1292 1.1291v10.2883c0 .6236-.5057 1.1292-1.1292 1.1292h-10.2882c-.6237 0-1.1292-.5056-1.1292-1.1292v-10.2883c0-.6236.5055-1.1291 1.1292-1.1291zm10.2882-15.0559h-10.2882c-.6237 0-1.1292.5055-1.1292 1.1292v10.2882c0 .6236.5055 1.1291 1.1292 1.1291h10.2882c.6235 0 1.1292-.5055 1.1292-1.1291v-10.2882c0-.6237-.5057-1.1292-1.1292-1.1292z" fill="#0075ff" fill-rule="evenodd"/><g fill="#001329"><path d="m88.1429 26.5181c-1.8692.9048-4.3098 1.3571-7.3212 1.3571-3.9291 0-7.0183-1.1547-9.268-3.4642-2.2503-2.3095-3.3754-5.3869-3.3754-9.2322 0-4.0952 1.2623-7.41664 3.7863-9.96424 2.5354-2.54761 5.8211-3.82142 9.8571-3.82142 2.4994 0 4.6069.31547 6.3212.94642v5.55358c-1.7143-1.02383-3.6669-1.53572-5.8572-1.53572-2.4046 0-4.3451.75594-5.8217 2.26789-1.476 1.51189-2.2137 3.55949-2.2137 6.14289 0 2.4761.696 4.4523 2.0891 5.9285 1.3926 1.4643 3.2675 2.1964 5.6252 2.1964 2.2497 0 4.3091-.5476 6.1783-1.6428zm9.5537.9107h-5.6429v-27.071378h5.6429zm21.1784-7.5357h-11.929c.191 2.6548 1.864 3.9821 5.019 3.9821 2.011 0 3.779-.4761 5.303-1.4285v4.0714c-1.691.9048-3.887 1.3571-6.589 1.3571-2.953 0-5.245-.8154-6.876-2.4464-1.63-1.6428-2.446-3.9285-2.446-6.8571 0-3.0357.881-5.4405 2.643-7.2143 1.762-1.77381 3.929-2.66066 6.5-2.66066 2.667 0 4.726.79165 6.179 2.37496 1.464 1.5833 2.196 3.7321 2.196 6.4464zm-5.232-3.4642c0-2.6191-1.06-3.9286-3.179-3.9286-.905 0-1.69.3749-2.357 1.125-.654.7499-1.053 1.6845-1.196 2.8036zm23.803 10.9999h-5.339v-2.625h-.072c-1.225 2.0477-3.041 3.0714-5.446 3.0714-1.774 0-3.172-.5-4.196-1.5-1.012-1.0118-1.518-2.3571-1.518-4.0356 0-3.5477 2.101-5.5953 6.303-6.1429l4.965-.6607c0-2-1.084-3-3.25-3-2.179 0-4.25.6488-6.214 1.9464v-4.25c.785-.40475 1.857-.76189 3.214-1.07144 1.369-.30948 2.613-.46422 3.732-.46422 5.214 0 7.821 2.60116 7.821 7.80356zm-5.303-7.4285v-1.2321l-3.321.4285c-1.834.2381-2.751 1.0655-2.751 2.4821 0 .6429.22 1.1727.661 1.5894.453.4047 1.059.607 1.822.607 1.059 0 1.922-.363 2.589-1.0892.667-.7381 1-1.6667 1-2.7857zm21.696-5.7679c-.678-.369-1.47-.5536-2.375-.5536-1.226 0-2.184.4524-2.875 1.3572-.69.8928-1.035 2.1131-1.035 3.6607v8.7321h-5.643v-18.28566h5.643v3.39286h.071c.893-2.4762 2.5-3.71429 4.821-3.71429.596 0 1.06.07143 1.393.21428z"/><path d="m68.6069 58.4466v-5.7142c1.036.8691 2.1611 1.5238 3.3754 1.9643 1.2143.4286 2.4406.6429 3.6783.6429.7263 0 1.3571-.0655 1.8931-.1965.5474-.1309 1-.3095 1.3572-.5357.3691-.2381.6428-.5119.8211-.8214.1789-.3214.268-.6667.268-1.0357 0-.5-.1429-.9465-.4286-1.3393-.2857-.3929-.6788-.756-1.1783-1.0893-.4885-.3333-1.072-.6547-1.7502-.9643-.6783-.3095-1.4109-.625-2.1966-.9464-2-.8333-3.4937-1.8512-4.4817-3.0536-.9766-1.2024-1.4646-2.6547-1.4646-4.3571 0-1.3333.268-2.4762.8034-3.4286.536-.9643 1.2623-1.7559 2.1789-2.375.9286-.619 2-1.0714 3.2143-1.3571 1.2143-.2977 2.5-.4465 3.8571-.4465 1.3332 0 2.512.0834 3.5354.25 1.036.1548 1.988.3988 2.8572.7322v5.3393c-.4286-.2976-.8989-.5596-1.4103-.7857-.5006-.2262-1.0183-.4108-1.5537-.5537-.536-.1547-1.0714-.2678-1.6074-.3392-.5235-.0714-1.0235-.1071-1.5-.1071-.6549 0-1.2498.0654-1.7858.1964-.5354.119-.988.2917-1.3571.5178-.3691.2262-.6549.5-.8571.8215-.2023.3095-.3035.6607-.3035 1.0535 0 .4286.1132.8155.3395 1.1608.2262.3333.5474.6547.964.9642.4165.2976.9228.5953 1.5182.8929.5949.2857 1.2675.5833 2.0178.8929 1.0234.4285 1.9405.8869 2.7497 1.3749.8217.4762 1.524 1.0179 2.1074 1.6251.5834.6071 1.0297 1.3035 1.3389 2.0892.3097.7738.4645 1.6786.4645 2.7143 0 1.4286-.2737 2.631-.8211 3.6072-.536.9642-1.268 1.7498-2.1966 2.3573-.9286.5948-2.012 1.0234-3.2503 1.2857-1.2263.2617-2.5234.3925-3.8925.3925-1.4052 0-2.744-.1188-4.0183-.3571-1.2617-.2377-2.3566-.5949-3.2857-1.0714zm31.2502.768c-.8331.4405-2.0891.6605-3.768.6605-3.976 0-5.964-2.0651-5.964-6.1962v-8.3751h-2.9645v-4.1607h2.9645v-3.9464l5.6246-1.6072v5.5536h4.1074v4.1607h-4.1074v7.3929c0 1.9048.756 2.8572 2.268 2.8572.5954 0 1.2086-.1726 1.8394-.5179zm18.4109.2143h-5.339v-2.6251h-.072c-1.226 2.0479-3.042 3.0713-5.446 3.0713-1.774 0-3.173-.5-4.197-1.5-1.012-1.012-1.517-2.357-1.517-4.0355 0-3.5477 2.101-5.5953 6.303-6.1429l4.965-.6607c0-2-1.084-3-3.251-3-2.178 0-4.25.6488-6.214 1.9465v-4.2501c.786-.4048 1.857-.7619 3.214-1.0714 1.369-.3095 2.613-.4643 3.732-.4643 5.215 0 7.822 2.6012 7.822 7.8036zm-5.303-7.4286v-1.2321l-3.322.4285c-1.833.2381-2.75 1.0655-2.75 2.4822 0 .6428.22 1.1726.661 1.5893.452.4047 1.059.607 1.821.607 1.059 0 1.923-.363 2.59-1.0892.666-.7381 1-1.6667 1-2.7857zm23.624 6.768c-1.274.7377-3.113 1.1068-5.518 1.1068-2.809 0-5.083-.8508-6.821-2.5537-1.738-1.7021-2.607-3.8985-2.607-6.589 0-3.1071.928-5.5535 2.786-7.3393 1.869-1.7976 4.362-2.6964 7.482-2.6964 2.155 0 3.714.2858 4.678.8572v4.7857c-1.178-.881-2.494-1.3215-3.946-1.3215-1.619 0-2.905.4762-3.857 1.4286-.941.9405-1.411 2.244-1.411 3.9107 0 1.6191.452 2.8929 1.357 3.8215.905.9166 2.149 1.375 3.732 1.375 1.405 0 2.78-.4405 4.125-1.3215zm22.036.6606h-6.768l-5.839-9.0715h-.072v9.0715h-5.643v-27.0715h5.643v17.2321h.072l5.446-8.4464h6.697l-6.554 8.5893zm35.321 0h-6.285l-1.822-5.6965h-9.107l-1.803 5.6965h-6.25l9.321-25.6072h6.839zm-9.428-10.1251-2.75-8.6071c-.202-.6428-.345-1.4107-.429-2.3036h-.142c-.06.75-.209 1.4941-.447 2.2322l-2.785 8.6785zm18.393 10.1251h-5.768v-25.6072h5.768z"/></g></svg>