<svg width="871" height="327" viewBox="0 0 871 327" fill="none" xmlns="http://www.w3.org/2000/svg">
<path d="M189.612 58.99H231.61C234.155 58.99 236.22 61.053 236.22 63.598V105.596C236.22 108.141 234.155 110.204 231.61 110.204H189.612C187.067 110.204 185.004 108.141 185.004 105.596V63.598C185.004 61.053 187.067 58.99 189.612 58.99Z" fill="#0075FF" stroke="white" stroke-width="2" stroke-miterlimit="10"/>
<path d="M128.154 120.448H170.15C172.696 120.448 174.76 122.511 174.76 125.058V167.054C174.76 169.6 172.697 171.664 170.15 171.664H128.154C125.608 171.664 123.544 169.601 123.544 167.054V125.058C123.544 122.511 125.608 120.448 128.154 120.448Z" fill="#0075FF" stroke="white" stroke-width="2" stroke-miterlimit="10"/>
<path d="M170.15 181.905H128.154C125.608 181.905 123.544 183.969 123.544 186.516V228.512C123.544 231.058 125.607 233.121 128.154 233.121H170.15C172.696 233.121 174.76 231.058 174.76 228.512V186.516C174.76 183.969 172.697 181.905 170.15 181.905Z" fill="#0075FF" stroke="white" stroke-miterlimit="10"/>
<path d="M5.23788 243.364H47.2339C49.7799 243.364 51.8439 245.427 51.8439 247.972V289.97C51.8439 292.516 49.7809 294.579 47.2339 294.579H5.23788C2.69288 294.579 0.629883 292.516 0.629883 289.97V247.972C0.628883 245.428 2.69288 243.364 5.23788 243.364Z" fill="#0075FF" stroke="white" stroke-miterlimit="10"/>
<path d="M128.154 243.364H170.15C172.696 243.364 174.76 245.427 174.76 247.972V289.97C174.76 292.516 172.697 294.579 170.15 294.579H128.154C125.608 294.579 123.544 292.516 123.544 289.97V247.972C123.544 245.428 125.608 243.364 128.154 243.364Z" fill="#0075FF" stroke="white" stroke-width="0.5" stroke-miterlimit="10"/>
<path d="M108.693 243.364H66.6969C64.1509 243.364 62.0869 245.427 62.0869 247.972V289.97C62.0869 292.516 64.1499 294.579 66.6969 294.579H108.693C111.239 294.579 113.303 292.516 113.303 289.97V247.972C113.303 245.428 111.24 243.364 108.693 243.364Z" fill="#0075FF" stroke="white" stroke-width="2" stroke-miterlimit="10"/>
<path d="M66.6969 181.905H108.693C111.239 181.905 113.303 183.969 113.303 186.516V228.512C113.303 231.058 111.24 233.121 108.693 233.121H66.6969C64.1509 233.121 62.0869 231.058 62.0869 228.512V186.516C62.0869 183.969 64.1509 181.905 66.6969 181.905Z" fill="#0075FF" stroke="white" stroke-width="0.5" stroke-miterlimit="10"/>
<path d="M231.61 243.364H189.612C187.067 243.364 185.004 245.427 185.004 247.972V289.97C185.004 292.516 187.067 294.579 189.612 294.579H231.61C234.155 294.579 236.22 292.516 236.22 289.97V247.972C236.22 245.428 234.155 243.364 231.61 243.364Z" fill="#0075FF" stroke="white" stroke-width="2" stroke-miterlimit="10"/>
<path d="M189.612 181.905H231.61C234.155 181.905 236.22 183.969 236.22 186.516V228.512C236.22 231.058 234.155 233.121 231.61 233.121H189.612C187.067 233.121 185.004 231.058 185.004 228.512V186.516C185.004 183.969 187.067 181.905 189.612 181.905Z" fill="#0075FF" stroke="white" stroke-width="0.5" stroke-miterlimit="10"/>
<path d="M231.61 120.448H189.612C187.067 120.448 185.004 122.511 185.004 125.058V167.054C185.004 169.6 187.067 171.664 189.612 171.664H231.61C234.155 171.664 236.22 169.601 236.22 167.054V125.058C236.22 122.511 234.155 120.448 231.61 120.448Z" fill="#0075FF" stroke="white" stroke-miterlimit="10"/>
<path d="M371.398 73.1021H357.763C356.957 69.1803 355.546 65.7349 353.53 62.7661C351.551 59.7972 349.131 57.3048 346.273 55.2889C343.45 53.2364 340.316 51.697 336.871 50.6707C333.426 49.6444 329.834 49.1313 326.095 49.1313C319.278 49.1313 313.102 50.8539 307.567 54.2993C302.069 57.7446 297.689 62.821 294.427 69.5285C291.202 76.2359 289.589 84.4644 289.589 94.2141C289.589 103.964 291.202 112.192 294.427 118.9C297.689 125.607 302.069 130.683 307.567 134.129C313.102 137.574 319.278 139.297 326.095 139.297C329.834 139.297 333.426 138.784 336.871 137.757C340.316 136.731 343.45 135.21 346.273 133.194C349.131 131.142 351.551 128.631 353.53 125.662C355.546 122.657 356.957 119.211 357.763 115.326H371.398C370.372 121.08 368.502 126.23 365.79 130.775C363.078 135.32 359.706 139.187 355.674 142.376C351.642 145.528 347.116 147.929 342.094 149.578C337.109 151.227 331.776 152.052 326.095 152.052C316.492 152.052 307.952 149.706 300.475 145.015C292.998 140.323 287.115 133.652 282.827 125.002C278.538 116.352 276.394 106.09 276.394 94.2141C276.394 82.3386 278.538 72.0758 282.827 63.4258C287.115 54.7758 292.998 48.105 300.475 43.4134C307.952 38.7219 316.492 36.3761 326.095 36.3761C331.776 36.3761 337.109 37.2008 342.094 38.8502C347.116 40.4996 351.642 42.9186 355.674 46.1074C359.706 49.2595 363.078 53.1081 365.79 57.653C368.502 62.1613 370.372 67.311 371.398 73.1021ZM404.646 37.9155V150.513H391.671V37.9155H404.646ZM463.818 152.272C455.681 152.272 448.662 150.476 442.761 146.884C436.896 143.255 432.37 138.197 429.181 131.71C426.029 125.186 424.453 117.598 424.453 108.948C424.453 100.298 426.029 92.6746 429.181 86.0772C432.37 79.443 436.805 74.275 442.486 70.5731C448.204 66.8345 454.874 64.9652 462.498 64.9652C466.896 64.9652 471.24 65.6983 475.528 67.1644C479.817 68.6305 483.72 71.0129 487.239 74.3117C490.757 77.5737 493.561 81.8988 495.651 87.2867C497.74 92.6746 498.784 99.3088 498.784 107.189V112.687H433.689V101.471H485.589C485.589 96.7064 484.636 92.4547 482.73 88.7162C480.861 84.9776 478.186 82.027 474.704 79.8645C471.258 77.702 467.19 76.6208 462.498 76.6208C457.33 76.6208 452.859 77.9036 449.083 80.4693C445.345 82.9983 442.467 86.2971 440.452 90.3655C438.436 94.434 437.428 98.7956 437.428 103.451V110.928C437.428 117.305 438.527 122.712 440.726 127.146C442.962 131.545 446.059 134.899 450.018 137.208C453.976 139.48 458.576 140.616 463.818 140.616C467.226 140.616 470.305 140.14 473.054 139.187C475.84 138.197 478.24 136.731 480.256 134.789C482.272 132.809 483.83 130.354 484.93 127.421L497.465 130.94C496.145 135.192 493.928 138.93 490.812 142.156C487.697 145.345 483.848 147.837 479.267 149.633C474.685 151.392 469.535 152.272 463.818 152.272ZM543.372 152.492C538.021 152.492 533.165 151.484 528.803 149.468C524.441 147.415 520.977 144.465 518.412 140.616C515.846 136.731 514.563 132.04 514.563 126.542C514.563 121.704 515.516 117.782 517.422 114.776C519.328 111.734 521.875 109.352 525.064 107.629C528.253 105.906 531.772 104.623 535.62 103.78C539.505 102.901 543.409 102.204 547.331 101.691C552.462 101.031 556.622 100.537 559.811 100.207C563.036 99.8402 565.382 99.2355 566.848 98.3925C568.351 97.5495 569.102 96.0833 569.102 93.9941V93.5543C569.102 88.1297 567.618 83.9147 564.649 80.9091C561.717 77.9036 557.264 76.4009 551.289 76.4009C545.095 76.4009 540.238 77.757 536.72 80.4693C533.201 83.1816 530.727 86.0772 529.298 89.156L516.982 84.7577C519.182 79.6263 522.114 75.6312 525.779 72.7722C529.481 69.8767 533.513 67.8608 537.874 66.7246C542.273 65.5517 546.598 64.9652 550.849 64.9652C553.562 64.9652 556.677 65.2951 560.196 65.9548C563.751 66.5779 567.178 67.8791 570.477 69.8584C573.812 71.8376 576.58 74.8248 578.779 78.8199C580.978 82.8151 582.078 88.1664 582.078 94.8738V150.513H569.102V139.077H568.443C567.563 140.91 566.097 142.87 564.044 144.96C561.992 147.049 559.261 148.827 555.853 150.293C552.444 151.759 548.284 152.492 543.372 152.492ZM545.352 140.836C550.483 140.836 554.808 139.828 558.327 137.812C561.882 135.797 564.558 133.194 566.354 130.005C568.186 126.817 569.102 123.463 569.102 119.944V108.069C568.553 108.729 567.343 109.333 565.474 109.883C563.641 110.396 561.515 110.854 559.096 111.258C556.714 111.624 554.386 111.954 552.114 112.247C549.878 112.504 548.064 112.724 546.671 112.907C543.299 113.347 540.147 114.061 537.215 115.051C534.319 116.004 531.973 117.452 530.177 119.394C528.418 121.3 527.538 123.903 527.538 127.201C527.538 131.71 529.206 135.118 532.541 137.428C535.913 139.7 540.184 140.836 545.352 140.836ZM605.76 150.513V66.0648H618.295V78.8199H619.175C620.714 74.6415 623.5 71.2512 627.531 68.6488C631.563 66.0465 636.108 64.7453 641.166 64.7453C642.119 64.7453 643.31 64.7636 644.74 64.8003C646.169 64.8369 647.251 64.8919 647.984 64.9652V78.1602C647.544 78.0502 646.536 77.8853 644.96 77.6654C643.42 77.4088 641.789 77.2805 640.067 77.2805C635.962 77.2805 632.296 78.1419 629.071 79.8645C625.882 81.5506 623.353 83.8963 621.484 86.9018C619.651 89.8707 618.735 93.2611 618.735 97.073V150.513H605.76Z" fill="white"/>
<path d="M342.369 205.312C341.709 199.74 339.034 195.415 334.342 192.336C329.651 189.258 323.896 187.718 317.079 187.718C312.094 187.718 307.732 188.525 303.994 190.137C300.292 191.75 297.396 193.968 295.307 196.79C293.254 199.612 292.228 202.819 292.228 206.411C292.228 209.417 292.943 212.001 294.372 214.163C295.838 216.289 297.708 218.067 299.98 219.496C302.253 220.889 304.635 222.043 307.127 222.96C309.62 223.839 311.911 224.554 314 225.104L325.435 228.183C328.368 228.952 331.63 230.015 335.222 231.372C338.85 232.728 342.314 234.579 345.613 236.924C348.948 239.234 351.697 242.202 353.86 245.831C356.022 249.46 357.103 253.913 357.103 259.191C357.103 265.275 355.509 270.773 352.32 275.685C349.168 280.596 344.55 284.5 338.466 287.395C332.418 290.291 325.069 291.739 316.419 291.739C308.355 291.739 301.373 290.437 295.472 287.835C289.607 285.233 284.989 281.604 281.617 276.949C278.282 272.294 276.394 266.888 275.954 260.73H290.029C290.396 264.982 291.825 268.501 294.317 271.286C296.846 274.035 300.035 276.088 303.884 277.444C307.769 278.763 311.947 279.423 316.419 279.423C321.624 279.423 326.297 278.58 330.439 276.894C334.58 275.172 337.861 272.789 340.28 269.747C342.699 266.668 343.908 263.076 343.908 258.971C343.908 255.232 342.864 252.19 340.775 249.845C338.685 247.499 335.936 245.593 332.528 244.127C329.119 242.661 325.435 241.378 321.477 240.278L307.622 236.32C298.826 233.791 291.862 230.18 286.73 225.489C281.599 220.797 279.033 214.658 279.033 207.071C279.033 200.767 280.738 195.269 284.146 190.577C287.592 185.849 292.21 182.184 298.001 179.581C303.829 176.942 310.335 175.623 317.518 175.623C324.776 175.623 331.227 176.924 336.871 179.526C342.516 182.092 346.987 185.611 350.286 190.082C353.621 194.554 355.381 199.63 355.564 205.312H342.369ZM414.488 205.312V216.307H370.724V205.312H414.488ZM383.48 185.079H396.455V265.569C396.455 269.234 396.986 271.983 398.049 273.815C399.149 275.611 400.541 276.821 402.227 277.444C403.95 278.03 405.764 278.324 407.67 278.324C409.1 278.324 410.273 278.25 411.189 278.104C412.105 277.92 412.838 277.774 413.388 277.664L416.027 289.319C415.147 289.649 413.92 289.979 412.344 290.309C410.767 290.676 408.77 290.859 406.351 290.859C402.686 290.859 399.094 290.071 395.575 288.495C392.093 286.919 389.197 284.518 386.888 281.293C384.616 278.067 383.48 273.999 383.48 269.087V185.079ZM458.856 291.739C453.505 291.739 448.648 290.731 444.286 288.715C439.925 286.662 436.461 283.712 433.895 279.863C431.33 275.978 430.047 271.286 430.047 265.788C430.047 260.95 431 257.028 432.906 254.023C434.812 250.981 437.359 248.598 440.548 246.876C443.737 245.153 447.255 243.87 451.104 243.027C454.989 242.147 458.892 241.451 462.814 240.938C467.946 240.278 472.106 239.783 475.295 239.453C478.52 239.087 480.866 238.482 482.332 237.639C483.835 236.796 484.586 235.33 484.586 233.241V232.801C484.586 227.376 483.102 223.161 480.133 220.156C477.2 217.15 472.747 215.648 466.773 215.648C460.578 215.648 455.722 217.004 452.203 219.716C448.685 222.428 446.211 225.324 444.781 228.403L432.466 224.004C434.665 218.873 437.597 214.878 441.263 212.019C444.964 209.123 448.996 207.107 453.358 205.971C457.756 204.798 462.081 204.212 466.333 204.212C469.045 204.212 472.161 204.542 475.679 205.202C479.235 205.825 482.662 207.126 485.96 209.105C489.296 211.084 492.063 214.071 494.262 218.067C496.461 222.062 497.561 227.413 497.561 234.121V289.759H484.586V278.324H483.926C483.047 280.156 481.58 282.117 479.528 284.206C477.475 286.296 474.745 288.073 471.336 289.539C467.927 291.005 463.767 291.739 458.856 291.739ZM460.835 280.083C465.966 280.083 470.291 279.075 473.81 277.059C477.365 275.043 480.041 272.441 481.837 269.252C483.67 266.063 484.586 262.71 484.586 259.191V247.315C484.036 247.975 482.827 248.58 480.957 249.13C479.125 249.643 476.999 250.101 474.58 250.504C472.197 250.871 469.87 251.201 467.597 251.494C465.362 251.75 463.547 251.97 462.155 252.154C458.783 252.593 455.63 253.308 452.698 254.298C449.803 255.251 447.457 256.699 445.661 258.641C443.902 260.547 443.022 263.149 443.022 266.448C443.022 270.956 444.69 274.365 448.025 276.674C451.397 278.947 455.667 280.083 460.835 280.083ZM555.55 291.519C547.633 291.519 540.816 289.649 535.098 285.911C529.38 282.172 524.982 277.022 521.903 270.462C518.824 263.901 517.285 256.405 517.285 247.975C517.285 239.398 518.861 231.83 522.013 225.269C525.202 218.671 529.637 213.522 535.318 209.82C541.036 206.081 547.706 204.212 555.33 204.212C561.268 204.212 566.619 205.312 571.384 207.511C576.149 209.71 580.052 212.789 583.095 216.747C586.137 220.706 588.024 225.324 588.757 230.602H575.782C574.793 226.753 572.594 223.345 569.185 220.376C565.813 217.37 561.268 215.867 555.55 215.867C550.492 215.867 546.057 217.187 542.245 219.826C538.47 222.428 535.519 226.112 533.394 230.877C531.304 235.605 530.26 241.158 530.26 247.535C530.26 254.06 531.286 259.741 533.339 264.579C535.428 269.417 538.36 273.174 542.135 275.85C545.947 278.525 550.419 279.863 555.55 279.863C558.922 279.863 561.983 279.277 564.732 278.104C567.481 276.931 569.808 275.245 571.714 273.046C573.62 270.846 574.976 268.208 575.782 265.129H588.757C588.024 270.113 586.21 274.603 583.315 278.599C580.456 282.557 576.662 285.709 571.934 288.055C567.242 290.364 561.781 291.519 555.55 291.519ZM619.821 258.971L619.601 242.917H622.24L659.186 205.312H675.239L635.874 245.116H634.775L619.821 258.971ZM607.725 289.759V177.162H620.7V289.759H607.725ZM661.385 289.759L628.397 247.975L637.634 238.959L677.878 289.759H661.385ZM741.86 289.759H727.566L768.91 177.162H782.985L824.329 289.759H810.034L776.387 194.975H775.507L741.86 289.759ZM747.138 245.776H804.756V257.871H747.138V245.776ZM855.502 177.162V289.759H841.867V177.162H855.502Z" fill="white"/>
</svg>
