<svg width="500" height="556" viewBox="0 0 500 556" fill="none" xmlns="http://www.w3.org/2000/svg">
    <path
        d="M425.519 555.5V546.5M499.019 384.5C485.686 384.5 455.619 384.5 442.019 384.5C428.419 384.5 425.352 395.167 425.519 400.5V546.5M425.519 459.5C425.352 454.167 428.419 443.5 442.019 443.5C455.619 443.5 485.686 443.5 499.019 443.5M425.519 436C425.352 430.667 425.119 420 411.519 420C400.519 420 364.019 420 364.019 420C359.686 419.833 351.019 416.4 351.019 404C351.019 396.829 351.019 384.74 351.019 373.5M351.019 352.5C351.019 357.56 351.019 365.305 351.019 373.5M351.019 352.5C352.852 352.667 356.519 352 356.519 347.5C356.519 343.1 352.852 342 351.019 342C349.186 342 345.519 343 345.519 347.5C345.519 352 349.186 352.5 351.019 352.5ZM351.019 373.5C351.519 370.667 354.819 365 364.019 365C373.219 365 389.852 365 397.019 365C401.686 365 411.019 361.5 411.019 347.5C411.019 333.5 411.019 319.667 411.019 314.5M351.019 373.5C350.352 370.667 347.219 365 340.019 365C332.819 365 314.019 365 305.519 365C300.686 364.833 291.019 361 291.019 347C291.019 333 291.019 319.167 291.019 314M291.019 314H297.519L291.019 303L284.519 314H291.019ZM425.519 546.5C424.019 529.833 411.719 496.5 374.519 496.5C363.166 496.5 352.363 496.5 342.519 496.5M247.519 452.5C247.919 486.1 279.352 495.833 295.019 496.5C302.662 496.5 320.105 496.5 342.519 496.5M247.519 452.5H188.019M247.519 452.5V426.5M188.019 452.5C175.519 451.5 150.619 456 151.019 482V519.5C150.686 528.5 144.119 546.5 120.519 546.5C96.9189 546.5 44.6855 546.5 21.5189 546.5V551.5H11.0189V541H21.5189V546M188.019 452.5C185.519 452.667 180.419 450.5 180.019 440.5C179.619 430.5 166.852 429 160.519 429.5H11.0189C10.8522 431.167 9.51886 434.5 5.51886 434.5C1.51886 434.5 0.185527 431.167 0.0188599 429.5C-0.147807 427.5 0.71886 423.5 5.51886 423.5C10.3189 423.5 11.1855 427.167 11.0189 429M247.519 246.832H241.519V236.5H253.519V246.832H247.519ZM247.519 246.832V358M247.519 426.5C245.186 411.833 231.219 382.4 194.019 382C187.853 381.934 181.648 381.885 175.519 381.85M247.519 426.5V358M51.5189 66C48.5189 66 46.0189 64 46.0189 60.5C46.0189 57 49.5189 55.5 51.5189 55.5C53.5189 55.5 57.0189 57 57.0189 60.5C57.0189 64 54.5189 66 51.5189 66ZM51.5189 66C51.5189 117.403 51.5189 210.122 51.5189 274M342.519 496.5C334.852 496.167 319.519 490.1 319.519 468.5C319.519 446.9 319.519 439.5 319.519 438.5M319.519 438.5H314.519V428.5H324.519V438.5H319.519ZM247.519 358C246.686 353 242.319 343 231.519 343C220.719 343 215.019 343 213.519 343C209.352 342.833 201.019 338.9 201.019 324.5C201.019 310.1 201.019 186.167 201.019 126M201.019 126H195.519L201.019 115.5L207.519 126H201.019ZM175.519 381.85C144.67 381.676 115.755 381.861 103.519 382C86.1855 382.333 51.5189 373.1 51.5189 333.5C51.5189 321.912 51.5189 300.424 51.5189 274M175.519 381.85C167.852 381.067 152.519 374.1 152.519 352.5C152.519 339.91 152.519 288.32 152.519 234.5M152.519 129C150.519 129 146.519 127.8 146.519 123C146.519 118.2 150.519 117.333 152.519 117.5C154.519 117.333 158.519 118.2 158.519 123C158.519 127.8 154.519 129 152.519 129ZM152.519 129C152.519 156.323 152.519 195.982 152.519 234.5M152.519 234.5C151.686 230.167 147.119 221.5 135.519 221.5C123.919 221.5 120.686 221.5 120.519 221.5C115.852 221.333 106.519 218.1 106.519 206.5C106.519 194.9 106.519 71.6667 106.519 11.5M106.519 11.5H101.519V1H112.019V11.5H106.519ZM51.5189 274C50.5189 268.667 46.1189 258 36.5189 258C26.9189 258 19.5189 253 17.0189 250.5C14.1855 247.667 8.51886 239.3 8.51886 228.5C8.51886 217.7 8.51886 177.667 8.51886 159M8.51886 159H2.51886L8.51886 148.5L15.0189 159H8.51886Z"
        stroke="url(#paint0_radial_95_577)" stroke-width="2" stroke-linejoin="round" />
    <defs>
        <radialGradient id="paint0_radial_95_577" cx="0" cy="0" r="1" gradientUnits="userSpaceOnUse"
            gradientTransform="translate(0.018822 555.5) rotate(-48.0413) scale(746.342 671.666)">
            <stop stop-color="#0075FF" />
            <stop offset="0.576666" stop-color="#E6F1FF" />
        </radialGradient>
    </defs>
</svg>