<svg width="207" height="60" viewBox="0 0 207 60" fill="none" xmlns="http://www.w3.org/2000/svg">
    <path fill-rule="evenodd" clip-rule="evenodd"
        d="M46.2969 1.71387H56.5851C57.2086 1.71387 57.7143 2.21942 57.7143 2.84306V13.1312C57.7143 13.755 57.2086 14.2604 56.5851 14.2604H46.2969C45.6732 14.2604 45.1677 13.755 45.1677 13.1312V2.84306C45.1677 2.21942 45.6732 1.71387 46.2969 1.71387ZM31.241 16.7698H41.5292C42.1529 16.7698 42.6584 17.2753 42.6584 17.899V28.1872C42.6584 28.8108 42.1529 29.3163 41.5292 29.3163H31.241C30.6173 29.3163 30.1118 28.8108 30.1118 28.1872V17.899C30.1118 17.2753 30.6173 16.7698 31.241 16.7698ZM41.5292 31.8257H31.241C30.6173 31.8257 30.1118 32.3312 30.1118 32.9548V43.2431C30.1118 43.8667 30.6173 44.3723 31.241 44.3723H41.5292C42.1529 44.3723 42.6584 43.8667 42.6584 43.2431V32.9548C42.6584 32.3312 42.1529 31.8257 41.5292 31.8257ZM1.12919 46.8816H11.4174C12.041 46.8816 12.5466 47.3871 12.5466 48.0108V58.299C12.5466 58.9224 12.041 59.4282 11.4174 59.4282H1.12919C0.505557 59.4282 0 58.9224 0 58.299V48.0108C0 47.3871 0.505557 46.8816 1.12919 46.8816ZM31.241 46.8816H41.5292C42.1529 46.8816 42.6584 47.3871 42.6584 48.0108V58.299C42.6584 58.9224 42.1529 59.4282 41.5292 59.4282H31.241C30.6173 59.4282 30.1118 58.9224 30.1118 58.299V48.0108C30.1118 47.3871 30.6173 46.8816 31.241 46.8816ZM26.4733 46.8816H16.1851C15.5614 46.8816 15.0559 47.3871 15.0559 48.0108V58.299C15.0559 58.9224 15.5614 59.4282 16.1851 59.4282H26.4733C27.097 59.4282 27.6025 58.9224 27.6025 58.299V48.0108C27.6025 47.3871 27.097 46.8816 26.4733 46.8816ZM16.1851 31.8257H26.4733C27.097 31.8257 27.6025 32.3312 27.6025 32.9548V43.2431C27.6025 43.8667 27.097 44.3723 26.4733 44.3723H16.1851C15.5614 44.3723 15.0559 43.8667 15.0559 43.2431V32.9548C15.0559 32.3312 15.5614 31.8257 16.1851 31.8257ZM56.5851 46.8816H46.2969C45.6732 46.8816 45.1677 47.3871 45.1677 48.0108V58.299C45.1677 58.9224 45.6732 59.4282 46.2969 59.4282H56.5851C57.2086 59.4282 57.7143 58.9224 57.7143 58.299V48.0108C57.7143 47.3871 57.2086 46.8816 56.5851 46.8816ZM46.2969 31.8257H56.5851C57.2086 31.8257 57.7143 32.3312 57.7143 32.9548V43.2431C57.7143 43.8667 57.2086 44.3723 56.5851 44.3723H46.2969C45.6732 44.3723 45.1677 43.8667 45.1677 43.2431V32.9548C45.1677 32.3312 45.6732 31.8257 46.2969 31.8257ZM56.5851 16.7698H46.2969C45.6732 16.7698 45.1677 17.2753 45.1677 17.899V28.1872C45.1677 28.8108 45.6732 29.3163 46.2969 29.3163H56.5851C57.2086 29.3163 57.7143 28.8108 57.7143 28.1872V17.899C57.7143 17.2753 57.2086 16.7698 56.5851 16.7698Z"
        fill="#0075FF" />
    <path
        d="M88.1429 26.5181C86.2737 27.4229 83.8331 27.8752 80.8217 27.8752C76.8926 27.8752 73.8034 26.7205 71.5537 24.411C69.3034 22.1015 68.1783 19.0241 68.1783 15.1788C68.1783 11.0836 69.4406 7.76216 71.9646 5.21456C74.5 2.66695 77.7857 1.39314 81.8217 1.39314C84.3211 1.39314 86.4286 1.70861 88.1429 2.33956V7.89314C86.4286 6.86931 84.476 6.35742 82.2857 6.35742C79.8811 6.35742 77.9406 7.11336 76.464 8.62531C74.988 10.1372 74.2503 12.1848 74.2503 14.7682C74.2503 17.2443 74.9463 19.2205 76.3394 20.6967C77.732 22.161 79.6069 22.8931 81.9646 22.8931C84.2143 22.8931 86.2737 22.3455 88.1429 21.2503V26.5181ZM97.6966 27.4288H92.0537V0.357422H97.6966V27.4288ZM118.875 19.8931H106.946C107.137 22.5479 108.81 23.8752 111.965 23.8752C113.976 23.8752 115.744 23.3991 117.268 22.4467V26.5181C115.577 27.4229 113.381 27.8752 110.679 27.8752C107.726 27.8752 105.434 27.0598 103.803 25.4288C102.173 23.786 101.357 21.5003 101.357 18.5717C101.357 15.536 102.238 13.1312 104 11.3574C105.762 9.58359 107.929 8.69674 110.5 8.69674C113.167 8.69674 115.226 9.48839 116.679 11.0717C118.143 12.655 118.875 14.8038 118.875 17.5181V19.8931ZM113.643 16.4289C113.643 13.8098 112.583 12.5003 110.464 12.5003C109.559 12.5003 108.774 12.8752 108.107 13.6253C107.453 14.3752 107.054 15.3098 106.911 16.4289H113.643ZM137.446 27.4288H132.107V24.8038H132.035C130.81 26.8515 128.994 27.8752 126.589 27.8752C124.815 27.8752 123.417 27.3752 122.393 26.3752C121.381 25.3634 120.875 24.0181 120.875 22.3396C120.875 18.7919 122.976 16.7443 127.178 16.1967L132.143 15.536C132.143 13.536 131.059 12.536 128.893 12.536C126.714 12.536 124.643 13.1848 122.679 14.4824V10.2324C123.464 9.82765 124.536 9.47051 125.893 9.16096C127.262 8.85148 128.506 8.69674 129.625 8.69674C134.839 8.69674 137.446 11.2979 137.446 16.5003V27.4288ZM132.143 20.0003V18.7682L128.822 19.1967C126.988 19.4348 126.071 20.2622 126.071 21.6788C126.071 22.3217 126.291 22.8515 126.732 23.2682C127.185 23.6729 127.791 23.8752 128.554 23.8752C129.613 23.8752 130.476 23.5122 131.143 22.786C131.81 22.0479 132.143 21.1193 132.143 20.0003ZM153.839 14.2324C153.161 13.8634 152.369 13.6788 151.464 13.6788C150.238 13.6788 149.28 14.1312 148.589 15.036C147.899 15.9288 147.554 17.1491 147.554 18.6967V27.4288H141.911V9.14314H147.554V12.536H147.625C148.518 10.0598 150.125 8.82171 152.446 8.82171C153.042 8.82171 153.506 8.89314 153.839 9.03599V14.2324Z"
        fill="#001329" />
    <path
        d="M68.6069 58.4466V52.7324C69.6429 53.6015 70.768 54.2562 71.9823 54.6967C73.1966 55.1253 74.4229 55.3396 75.6606 55.3396C76.3869 55.3396 77.0177 55.2741 77.5537 55.1431C78.1011 55.0122 78.5537 54.8336 78.9109 54.6074C79.28 54.3693 79.5537 54.0955 79.732 53.786C79.9109 53.4646 80 53.1193 80 52.7503C80 52.2503 79.8571 51.8038 79.5714 51.411C79.2857 51.0181 78.8926 50.655 78.3931 50.3217C77.9046 49.9884 77.3211 49.667 76.6429 49.3574C75.9646 49.0479 75.232 48.7324 74.4463 48.411C72.4463 47.5777 70.9526 46.5598 69.9646 45.3574C68.988 44.155 68.5 42.7027 68.5 41.0003C68.5 39.667 68.768 38.5241 69.3034 37.5717C69.8394 36.6074 70.5657 35.8158 71.4823 35.1967C72.4109 34.5777 73.4823 34.1253 74.6966 33.8396C75.9109 33.5419 77.1966 33.3931 78.5537 33.3931C79.8869 33.3931 81.0657 33.4765 82.0891 33.6431C83.1251 33.7979 84.0771 34.0419 84.9463 34.3753V39.7146C84.5177 39.417 84.0474 39.155 83.536 38.9289C83.0354 38.7027 82.5177 38.5181 81.9823 38.3752C81.4463 38.2205 80.9109 38.1074 80.3749 38.036C79.8514 37.9646 79.3514 37.9289 78.8749 37.9289C78.22 37.9289 77.6251 37.9943 77.0891 38.1253C76.5537 38.2443 76.1011 38.417 75.732 38.6431C75.3629 38.8693 75.0771 39.1431 74.8749 39.4646C74.6726 39.7741 74.5714 40.1253 74.5714 40.5181C74.5714 40.9467 74.6846 41.3336 74.9109 41.6789C75.1371 42.0122 75.4583 42.3336 75.8749 42.6431C76.2914 42.9407 76.7977 43.2384 77.3931 43.536C77.988 43.8217 78.6606 44.1193 79.4109 44.4289C80.4343 44.8574 81.3514 45.3158 82.1606 45.8038C82.9823 46.28 83.6846 46.8217 84.268 47.4289C84.8514 48.036 85.2977 48.7324 85.6069 49.5181C85.9166 50.2919 86.0714 51.1967 86.0714 52.2324C86.0714 53.661 85.7977 54.8634 85.2503 55.8396C84.7143 56.8038 83.9823 57.5894 83.0537 58.1969C82.1251 58.7917 81.0417 59.2203 79.8034 59.4826C78.5771 59.7443 77.28 59.8751 75.9109 59.8751C74.5057 59.8751 73.1669 59.7563 71.8926 59.518C70.6309 59.2803 69.536 58.9231 68.6069 58.4466ZM99.8571 59.2146C99.024 59.6551 97.768 59.8751 96.0891 59.8751C92.1131 59.8751 90.1251 57.81 90.1251 53.6789V45.3038H87.1606V41.1431H90.1251V37.1967L95.7497 35.5895V41.1431H99.8571V45.3038H95.7497V52.6967C95.7497 54.6015 96.5057 55.5539 98.0177 55.5539C98.6131 55.5539 99.2263 55.3813 99.8571 55.036V59.2146ZM118.268 59.4289H112.929V56.8038H112.857C111.631 58.8517 109.815 59.8751 107.411 59.8751C105.637 59.8751 104.238 59.3751 103.214 58.3751C102.202 57.3631 101.697 56.0181 101.697 54.3396C101.697 50.7919 103.798 48.7443 108 48.1967L112.965 47.536C112.965 45.536 111.881 44.536 109.714 44.536C107.536 44.536 105.464 45.1848 103.5 46.4825V42.2324C104.286 41.8276 105.357 41.4705 106.714 41.161C108.083 40.8515 109.327 40.6967 110.446 40.6967C115.661 40.6967 118.268 43.2979 118.268 48.5003V59.4289ZM112.965 52.0003V50.7682L109.643 51.1967C107.81 51.4348 106.893 52.2622 106.893 53.6789C106.893 54.3217 107.113 54.8515 107.554 55.2682C108.006 55.6729 108.613 55.8752 109.375 55.8752C110.434 55.8752 111.298 55.5122 111.965 54.786C112.631 54.0479 112.965 53.1193 112.965 52.0003ZM136.589 58.7683C135.315 59.506 133.476 59.8751 131.071 59.8751C128.262 59.8751 125.988 59.0243 124.25 57.3214C122.512 55.6193 121.643 53.4229 121.643 50.7324C121.643 47.6253 122.571 45.1789 124.429 43.3931C126.298 41.5955 128.791 40.6967 131.911 40.6967C134.066 40.6967 135.625 40.9825 136.589 41.5539V46.3396C135.411 45.4586 134.095 45.0181 132.643 45.0181C131.024 45.0181 129.738 45.4943 128.786 46.4467C127.845 47.3872 127.375 48.6907 127.375 50.3574C127.375 51.9765 127.827 53.2503 128.732 54.1789C129.637 55.0955 130.881 55.5539 132.464 55.5539C133.869 55.5539 135.244 55.1134 136.589 54.2324V58.7683ZM158.625 59.4289H151.857L146.018 50.3574H145.946V59.4289H140.303V32.3574H145.946V49.5895H146.018L151.464 41.1431H158.161L151.607 49.7324L158.625 59.4289ZM193.946 59.4289H187.661L185.839 53.7324H176.732L174.929 59.4289H168.679L178 33.8217H184.839L193.946 59.4289ZM184.518 49.3038L181.768 40.6967C181.566 40.0539 181.423 39.286 181.339 38.3931H181.197C181.137 39.1431 180.988 39.8872 180.75 40.6253L177.965 49.3038H184.518ZM202.911 59.4289H197.143V33.8217H202.911V59.4289Z"
        fill="#001329" />
</svg>