<svg width="217" height="60" viewBox="0 0 217 60" fill="none" xmlns="http://www.w3.org/2000/svg">
    <g clip-path="url(#clip0_56_24)">
        <path fill-rule="evenodd" clip-rule="evenodd"
            d="M45.194 3.06122H55.2372C55.846 3.06122 56.3394 3.55461 56.3394 4.16326V14.2041C56.3394 14.8128 55.846 15.3061 55.2372 15.3061H45.194C44.5852 15.3061 44.0917 14.8128 44.0917 14.2041V4.16326C44.0917 3.55461 44.5852 3.06122 45.194 3.06122ZM30.4968 17.7551H40.5399C41.1487 17.7551 41.6422 18.2484 41.6422 18.8571V28.898C41.6422 29.5066 41.1487 30 40.5399 30H30.4968C29.888 30 29.3945 29.5066 29.3945 28.898V18.8571C29.3945 18.2484 29.888 17.7551 30.4968 17.7551ZM40.5399 32.449H30.4968C29.888 32.449 29.3945 32.9423 29.3945 33.551V43.5918C29.3945 44.2005 29.888 44.6939 30.4968 44.6939H40.5399C41.1487 44.6939 41.6422 44.2005 41.6422 43.5918V33.551C41.6422 32.9423 41.1487 32.449 40.5399 32.449ZM1.10229 47.1429H11.1454C11.7542 47.1429 12.2477 47.6362 12.2477 48.2449V58.2857C12.2477 58.8944 11.7542 59.3877 11.1454 59.3877H1.10229C0.493514 59.3877 0 58.8944 0 58.2857V48.2449C0 47.6362 0.493514 47.1429 1.10229 47.1429ZM30.4968 47.1429H40.5399C41.1487 47.1429 41.6422 47.6362 41.6422 48.2449V58.2857C41.6422 58.8944 41.1487 59.3877 40.5399 59.3877H30.4968C29.888 59.3877 29.3945 58.8944 29.3945 58.2857V48.2449C29.3945 47.6362 29.888 47.1429 30.4968 47.1429ZM25.8427 47.1429H15.7995C15.1907 47.1429 14.6972 47.6362 14.6972 48.2449V58.2857C14.6972 58.8944 15.1907 59.3877 15.7995 59.3877H25.8427C26.4515 59.3877 26.945 58.8944 26.945 58.2857V48.2449C26.945 47.6362 26.4515 47.1429 25.8427 47.1429ZM15.7995 32.449H25.8427C26.4515 32.449 26.945 32.9423 26.945 33.551V43.5918C26.945 44.2005 26.4515 44.6939 25.8427 44.6939H15.7995C15.1907 44.6939 14.6972 44.2005 14.6972 43.5918V33.551C14.6972 32.9423 15.1907 32.449 15.7995 32.449ZM55.2372 47.1429H45.194C44.5852 47.1429 44.0917 47.6362 44.0917 48.2449V58.2857C44.0917 58.8944 44.5852 59.3877 45.194 59.3877H55.2372C55.846 59.3877 56.3394 58.8944 56.3394 58.2857V48.2449C56.3394 47.6362 55.846 47.1429 55.2372 47.1429ZM45.194 32.449H55.2372C55.846 32.449 56.3394 32.9423 56.3394 33.551V43.5918C56.3394 44.2005 55.846 44.6939 55.2372 44.6939H45.194C44.5852 44.6939 44.0917 44.2005 44.0917 43.5918V33.551C44.0917 32.9423 44.5852 32.449 45.194 32.449ZM55.2372 17.7551H45.194C44.5852 17.7551 44.0917 18.2484 44.0917 18.8571V28.898C44.0917 29.5066 44.5852 30 45.194 30H55.2372C55.846 30 56.3394 29.5066 56.3394 28.898V18.8571C56.3394 18.2484 55.846 17.7551 55.2372 17.7551Z"
            fill="#0075FF" />
        <path
            d="M79.4421 26.3265C77.3477 26.3265 75.7127 25.9041 74.5369 25.0592C73.3733 24.2143 72.6446 22.9102 72.3507 21.1469C72.3017 20.6082 72.4119 20.2041 72.6813 19.9347C72.9508 19.6653 73.3427 19.5306 73.8571 19.5306C74.3715 19.5306 74.7451 19.6531 74.9778 19.898C75.2227 20.1429 75.3881 20.5225 75.4738 21.0367C75.6575 21.8816 76.0495 22.4633 76.6496 22.7816C77.262 23.0878 78.1928 23.2408 79.4421 23.2408H84.7331C86.313 23.2408 87.3847 22.9592 87.9481 22.3959C88.5238 21.8204 88.8116 20.7551 88.8116 19.2C88.8116 17.6204 88.5176 16.5429 87.9297 15.9674C87.3418 15.3796 86.2763 15.0857 84.7331 15.0857H80.1769C77.8621 15.0857 76.1413 14.5225 75.0145 13.3959C73.9 12.2572 73.3427 10.5306 73.3427 8.21633C73.3427 5.91429 73.8939 4.20613 74.9962 3.09184C76.1107 1.97756 77.8254 1.42042 80.1402 1.42042H84.5126C86.46 1.42042 87.9849 1.81837 89.0871 2.61429C90.2017 3.41021 90.9059 4.62858 91.1999 6.2694C91.2734 6.79593 91.1754 7.20001 90.9059 7.48164C90.6365 7.75103 90.2323 7.88572 89.6934 7.88572C89.2035 7.88572 88.8361 7.75715 88.5911 7.50001C88.3462 7.24287 88.1869 6.8694 88.1135 6.3796C87.9175 5.65715 87.5439 5.16735 86.9928 4.91021C86.4416 4.64082 85.6149 4.50613 84.5126 4.50613H80.1402C78.6705 4.50613 77.6845 4.7694 77.1824 5.29593C76.6802 5.81021 76.4291 6.78368 76.4291 8.21633C76.4291 9.66123 76.6863 10.6531 77.2008 11.1918C77.7152 11.7306 78.7072 12 80.1769 12H84.7331C87.1459 12 88.9402 12.5878 90.116 13.7633C91.304 14.9388 91.898 16.751 91.898 19.2C91.898 21.6367 91.3101 23.4367 90.1343 24.6C88.9585 25.751 87.1581 26.3265 84.7331 26.3265H79.4421ZM99.6833 4.6898C98.5197 4.6898 97.938 4.10205 97.938 2.92654V1.84286C97.938 0.691843 98.5197 0.116333 99.6833 0.116333H100.749C101.863 0.116333 102.421 0.691843 102.421 1.84286V2.92654C102.421 4.10205 101.863 4.6898 100.749 4.6898H99.6833ZM100.198 26.3265C99.1688 26.3265 98.6544 25.8123 98.6544 24.7837V9.24491C98.6544 8.21634 99.1688 7.70205 100.198 7.70205C101.226 7.70205 101.741 8.21634 101.741 9.24491V24.7837C101.741 25.8123 101.226 26.3265 100.198 26.3265ZM129.775 7.70205C132.09 7.70205 133.75 8.24695 134.754 9.33674C135.771 10.4265 136.279 12.2327 136.279 14.7551V24.7837C136.279 25.8123 135.764 26.3265 134.736 26.3265C133.707 26.3265 133.192 25.8123 133.192 24.7837V14.7551C133.192 13.3592 132.923 12.349 132.384 11.7245C131.857 11.1 130.988 10.7878 129.775 10.7878H128.269C126.873 10.7878 125.875 11.1 125.275 11.7245C124.674 12.349 124.374 13.3592 124.374 14.7551V24.7837C124.374 25.8123 123.86 26.3265 122.831 26.3265C121.802 26.3265 121.288 25.8123 121.288 24.7837V14.7551C121.288 13.3592 121.019 12.349 120.48 11.7245C119.953 11.1 119.083 10.7878 117.871 10.7878H116.364C114.968 10.7878 113.97 11.1 113.37 11.7245C112.77 12.349 112.47 13.3592 112.47 14.7551V24.7837C112.47 25.8123 111.955 26.3265 110.926 26.3265C109.898 26.3265 109.383 25.8123 109.383 24.7837V9.24491C109.383 8.21634 109.898 7.70205 110.926 7.70205C111.955 7.70205 112.47 8.21634 112.47 9.24491V10.0898C113.119 9.24491 113.829 8.63878 114.601 8.27144C115.385 7.89185 116.315 7.70205 117.393 7.70205H117.871C119.39 7.70205 120.584 7.91634 121.453 8.34491C122.323 8.76123 122.984 9.44083 123.437 10.3837C124.087 9.41634 124.772 8.73062 125.495 8.32654C126.23 7.91021 127.155 7.70205 128.269 7.70205H129.775ZM145.086 33.6735C144.057 33.6735 143.543 33.1592 143.543 32.1306V9.24491C143.543 8.21634 144.057 7.70205 145.086 7.70205C146.115 7.70205 146.629 8.21634 146.629 9.24491V9.70409C147.291 9.04287 148.105 8.54695 149.073 8.21633C150.053 7.87348 151.149 7.70205 152.361 7.70205H153.757C156.207 7.70205 158.02 8.2898 159.195 9.46531C160.371 10.6408 160.959 12.4531 160.959 14.902V19.1265C160.959 21.5633 160.371 23.3755 159.195 24.5633C158.02 25.7388 156.207 26.3265 153.757 26.3265H146.629V32.1306C146.629 33.1592 146.115 33.6735 145.086 33.6735ZM146.629 23.2408H153.757C155.362 23.2408 156.446 22.9531 157.009 22.3776C157.585 21.802 157.873 20.7184 157.873 19.1265V14.902C157.873 13.298 157.585 12.2143 157.009 11.651C156.446 11.0755 155.362 10.7878 153.757 10.7878H152.361C150.83 10.7878 149.508 10.9714 148.393 11.3388C147.278 11.7061 146.691 12.2878 146.629 13.0837V23.2408ZM173.275 26.3265C171.402 26.3265 170.005 25.8674 169.087 24.949C168.18 24.0184 167.727 22.6163 167.727 20.7429V2.00817C167.727 0.979597 168.242 0.465311 169.27 0.465311C170.299 0.465311 170.814 0.979597 170.814 2.00817V20.7429C170.814 21.7347 170.973 22.4021 171.291 22.7449C171.622 23.0755 172.283 23.2408 173.275 23.2408C174.329 23.2408 174.855 23.7551 174.855 24.7837C174.892 25.8123 174.365 26.3265 173.275 26.3265ZM181.808 18.2816V19.1633C181.808 20.7429 182.096 21.8204 182.672 22.3959C183.248 22.9592 184.331 23.2408 185.924 23.2408H188.937C190.186 23.2408 191.111 23.1245 191.711 22.8918C192.311 22.6592 192.709 22.249 192.905 21.6612C193.04 21.1959 193.223 20.8408 193.456 20.5959C193.701 20.351 194.068 20.2286 194.558 20.2286C195.073 20.2286 195.465 20.3633 195.734 20.6327C196.004 20.9021 196.089 21.2939 195.991 21.8082C195.722 23.3265 194.999 24.4592 193.823 25.2061C192.648 25.9531 191.019 26.3265 188.937 26.3265H185.924C183.486 26.3265 181.674 25.7388 180.486 24.5633C179.31 23.3878 178.722 21.5878 178.722 19.1633V14.902C178.722 12.4163 179.31 10.5918 180.486 9.42858C181.674 8.25307 183.486 7.67756 185.924 7.70205H188.937C191.386 7.70205 193.199 8.2898 194.375 9.46531C195.55 10.6286 196.138 12.4408 196.138 14.902V16.7388C196.138 17.7674 195.624 18.2816 194.595 18.2816H181.808ZM185.924 10.7878C184.331 10.7633 183.248 11.0388 182.672 11.6143C182.096 12.1898 181.808 13.2857 181.808 14.902V15.1959H193.052V14.902C193.052 13.298 192.764 12.2143 192.188 11.651C191.625 11.0755 190.541 10.7878 188.937 10.7878H185.924Z"
            fill="white" />
        <path
            d="M79.4421 59.3877C77.3477 59.3877 75.7127 58.9653 74.5369 58.1204C73.3733 57.2755 72.6446 55.9714 72.3507 54.2082C72.3017 53.6694 72.4119 53.2653 72.6813 52.9959C72.9508 52.7265 73.3427 52.5918 73.8571 52.5918C74.3715 52.5918 74.7451 52.7143 74.9778 52.9592C75.2227 53.2041 75.3881 53.5837 75.4738 54.0979C75.6575 54.9428 76.0495 55.5245 76.6496 55.8428C77.262 56.149 78.1928 56.302 79.4421 56.302H84.7331C86.313 56.302 87.3847 56.0204 87.9481 55.4571C88.5238 54.8816 88.8116 53.8163 88.8116 52.2612C88.8116 50.6816 88.5176 49.6041 87.9297 49.0286C87.3418 48.4408 86.2763 48.1469 84.7331 48.1469H80.1769C77.8621 48.1469 76.1413 47.5837 75.0145 46.4571C73.9 45.3184 73.3427 43.5918 73.3427 41.2775C73.3427 38.9755 73.8939 37.2673 74.9962 36.1531C76.1107 35.0388 77.8254 34.4816 80.1402 34.4816H84.5126C86.46 34.4816 87.9849 34.8796 89.0871 35.6755C90.2017 36.4714 90.9059 37.6898 91.1999 39.3306C91.2734 39.8571 91.1754 40.2612 90.9059 40.5428C90.6365 40.8122 90.2323 40.9469 89.6934 40.9469C89.2035 40.9469 88.8361 40.8184 88.5911 40.5612C88.3462 40.3041 88.1869 39.9306 88.1135 39.4408C87.9175 38.7184 87.5439 38.2286 86.9928 37.9714C86.4416 37.702 85.6149 37.5673 84.5126 37.5673H80.1402C78.6705 37.5673 77.6845 37.8306 77.1824 38.3571C76.6802 38.8714 76.4291 39.8449 76.4291 41.2775C76.4291 42.7224 76.6863 43.7143 77.2008 44.2531C77.7152 44.7918 78.7072 45.0612 80.1769 45.0612H84.7331C87.1459 45.0612 88.9402 45.649 90.116 46.8245C91.304 48 91.898 49.8122 91.898 52.2612C91.898 54.6979 91.3101 56.4979 90.1343 57.6612C88.9585 58.8122 87.1581 59.3877 84.7331 59.3877H79.4421ZM106.517 59.3877C104.092 59.3877 102.304 58.8122 101.153 57.6612C100.002 56.5102 99.4261 54.7347 99.4261 52.3347V43.849H97.6256C96.5968 43.849 96.0824 43.3347 96.0824 42.3061C96.0824 41.2775 96.5968 40.7633 97.6256 40.7633H99.4261V38.0816C99.4261 37.0531 99.9405 36.5388 100.969 36.5388C101.998 36.5388 102.512 37.0531 102.512 38.0816V40.7633H106.738C107.767 40.7633 108.281 41.2775 108.281 42.3061C108.281 43.3347 107.767 43.849 106.738 43.849H102.512V52.3347C102.512 53.8898 102.794 54.9429 103.358 55.4939C103.921 56.0326 104.974 56.302 106.517 56.302C106.995 56.302 107.369 56.4245 107.638 56.6694C107.92 56.9143 108.061 57.3061 108.061 57.8449C108.061 58.8735 107.546 59.3877 106.517 59.3877ZM118.667 59.3877C116.61 59.3877 115.079 58.8857 114.074 57.8816C113.07 56.8775 112.568 55.3469 112.568 53.2898C112.568 51.2326 113.064 49.702 114.056 48.698C115.06 47.6939 116.597 47.1918 118.667 47.1918H126.438C126.365 45.9061 126.028 45.0306 125.428 44.5653C124.828 44.0877 123.799 43.849 122.342 43.849H120.211C118.986 43.849 118.073 43.9347 117.473 44.1061C116.873 44.2653 116.45 44.5592 116.206 44.9877C115.985 45.502 115.758 45.8571 115.526 46.0531C115.293 46.249 114.944 46.3469 114.479 46.3469C113.964 46.3469 113.56 46.2061 113.266 45.9245C112.972 45.6306 112.886 45.2449 113.009 44.7673C113.376 43.3837 114.142 42.3735 115.305 41.7367C116.481 41.0877 118.116 40.7633 120.211 40.7633H122.342C124.791 40.7633 126.604 41.351 127.78 42.5265C128.955 43.702 129.544 45.5143 129.544 47.9633V57.8449C129.544 58.8735 129.029 59.3877 128 59.3877C126.971 59.3877 126.457 58.8735 126.457 57.8449V57.0184C125.146 58.5979 123.236 59.3877 120.725 59.3877H118.667ZM118.667 56.302H120.725C121.631 56.302 122.482 56.2224 123.279 56.0633C124.075 55.8918 124.754 55.5857 125.318 55.1449C125.893 54.7041 126.273 54.0735 126.457 53.2531V50.2775H118.667C117.455 50.2775 116.646 50.4796 116.242 50.8837C115.85 51.2877 115.654 52.0898 115.654 53.2898C115.654 54.502 115.85 55.3102 116.242 55.7143C116.646 56.1061 117.455 56.302 118.667 56.302ZM143.152 59.3877C140.715 59.3877 138.902 58.8 137.714 57.6245C136.538 56.4367 135.951 54.6245 135.951 52.1877V47.9265C135.951 45.4775 136.532 43.6653 137.696 42.4898C138.872 41.3143 140.69 40.7388 143.152 40.7633H146.165C147.99 40.7633 149.423 41.0694 150.464 41.6816C151.517 42.2939 152.191 43.2367 152.485 44.5102C152.595 45.0245 152.503 45.4224 152.209 45.7041C151.928 45.9857 151.517 46.1265 150.978 46.1265C150.501 46.1265 150.152 46.0041 149.931 45.7592C149.711 45.5143 149.509 45.1714 149.325 44.7306C149.141 44.4 148.805 44.1735 148.315 44.051C147.825 43.9163 147.108 43.849 146.165 43.849H143.152C141.572 43.8245 140.488 44.1 139.9 44.6755C139.325 45.2388 139.037 46.3224 139.037 47.9265V52.1877C139.037 53.7796 139.325 54.8633 139.9 55.4388C140.488 56.0143 141.572 56.302 143.152 56.302H146.165C147.108 56.302 147.825 56.2408 148.315 56.1184C148.805 55.9837 149.141 55.751 149.325 55.4204C149.509 54.9551 149.711 54.6061 149.931 54.3735C150.164 54.1408 150.525 54.0245 151.015 54.0245C151.53 54.0245 151.928 54.1653 152.209 54.4469C152.503 54.7286 152.595 55.1265 152.485 55.6408C152.191 56.902 151.517 57.8449 150.464 58.4694C149.423 59.0816 147.99 59.3877 146.165 59.3877H143.152ZM160.444 59.3877C159.415 59.3877 158.9 58.8735 158.9 57.8449V35.0694C158.9 34.0408 159.415 33.5265 160.444 33.5265C161.472 33.5265 161.987 34.0408 161.987 35.0694V48.8633L170.732 41.351C171.515 40.6775 172.238 40.7265 172.899 41.4979C173.573 42.2816 173.524 43.0041 172.752 43.6653L166.047 49.451L172.459 56.7428C173.144 57.5388 173.108 58.2612 172.348 58.9102C171.564 59.5837 170.83 59.5347 170.144 58.7633L163.695 51.4898L161.987 52.9592V57.8449C161.987 58.8735 161.472 59.3877 160.444 59.3877ZM187.937 59.2408C186.957 58.8612 186.663 58.1877 187.055 57.2204L195.8 35.6939C196.168 34.8857 196.743 34.4816 197.527 34.4816H197.601C198.397 34.5184 198.936 34.9224 199.217 35.6939L208.109 57.2204C208.501 58.1877 208.219 58.8612 207.264 59.2408C206.296 59.6204 205.623 59.3388 205.243 58.3959L203.259 53.5837H191.814L189.921 58.3959C189.542 59.351 188.88 59.6326 187.937 59.2408ZM193.026 50.4979H201.991L197.417 39.3673L193.026 50.4979ZM215.127 59.3877C214.6 59.3877 214.208 59.2653 213.951 59.0204C213.706 58.7633 213.584 58.3714 213.584 57.8449V36.0612C213.584 35.5224 213.706 35.1306 213.951 34.8857C214.208 34.6408 214.6 34.5184 215.127 34.5184C215.666 34.5184 216.058 34.6408 216.303 34.8857C216.548 35.1306 216.67 35.5224 216.67 36.0612V57.8449C216.67 58.3714 216.548 58.7633 216.303 59.0204C216.058 59.2653 215.666 59.3877 215.127 59.3877Z"
            fill="white" />
    </g>
    <defs>
        <clipPath id="clip0_56_24">
            <rect width="217" height="60" fill="white" />
        </clipPath>
    </defs>
</svg>    