<svg width="57" height="57" viewBox="0 0 57 57" fill="none" xmlns="http://www.w3.org/2000/svg">
    <path fill-rule="evenodd" clip-rule="evenodd" d="M45.194 0.0612183H55.2372C55.846 0.0612183 56.3394 0.554614 56.3394 1.16326V11.2041C56.3394 11.8128 55.846 12.3061 55.2372 12.3061H45.194C44.5852 12.3061 44.0917 11.8128 44.0917 11.2041V1.16326C44.0917 0.554614 44.5852 0.0612183 45.194 0.0612183ZM30.4968 14.7551H40.5399C41.1487 14.7551 41.6422 15.2484 41.6422 15.8571V25.898C41.6422 26.5066 41.1487 27 40.5399 27H30.4968C29.888 27 29.3945 26.5066 29.3945 25.898V15.8571C29.3945 15.2484 29.888 14.7551 30.4968 14.7551ZM40.5399 29.449H30.4968C29.888 29.449 29.3945 29.9423 29.3945 30.551V40.5918C29.3945 41.2005 29.888 41.6939 30.4968 41.6939H40.5399C41.1487 41.6939 41.6422 41.2005 41.6422 40.5918V30.551C41.6422 29.9423 41.1487 29.449 40.5399 29.449ZM1.10229 44.1429H11.1454C11.7542 44.1429 12.2477 44.6362 12.2477 45.2449V55.2857C12.2477 55.8944 11.7542 56.3877 11.1454 56.3877H1.10229C0.493514 56.3877 0 55.8944 0 55.2857V45.2449C0 44.6362 0.493514 44.1429 1.10229 44.1429ZM30.4968 44.1429H40.5399C41.1487 44.1429 41.6422 44.6362 41.6422 45.2449V55.2857C41.6422 55.8944 41.1487 56.3877 40.5399 56.3877H30.4968C29.888 56.3877 29.3945 55.8944 29.3945 55.2857V45.2449C29.3945 44.6362 29.888 44.1429 30.4968 44.1429ZM25.8427 44.1429H15.7995C15.1907 44.1429 14.6972 44.6362 14.6972 45.2449V55.2857C14.6972 55.8944 15.1907 56.3877 15.7995 56.3877H25.8427C26.4515 56.3877 26.945 55.8944 26.945 55.2857V45.2449C26.945 44.6362 26.4515 44.1429 25.8427 44.1429ZM15.7995 29.449H25.8427C26.4515 29.449 26.945 29.9423 26.945 30.551V40.5918C26.945 41.2005 26.4515 41.6939 25.8427 41.6939H15.7995C15.1907 41.6939 14.6972 41.2005 14.6972 40.5918V30.551C14.6972 29.9423 15.1907 29.449 15.7995 29.449ZM55.2372 44.1429H45.194C44.5852 44.1429 44.0917 44.6362 44.0917 45.2449V55.2857C44.0917 55.8944 44.5852 56.3877 45.194 56.3877H55.2372C55.846 56.3877 56.3394 55.8944 56.3394 55.2857V45.2449C56.3394 44.6362 55.846 44.1429 55.2372 44.1429ZM45.194 29.449H55.2372C55.846 29.449 56.3394 29.9423 56.3394 30.551V40.5918C56.3394 41.2005 55.846 41.6939 55.2372 41.6939H45.194C44.5852 41.6939 44.0917 41.2005 44.0917 40.5918V30.551C44.0917 29.9423 44.5852 29.449 45.194 29.449ZM55.2372 14.7551H45.194C44.5852 14.7551 44.0917 15.2484 44.0917 15.8571V25.898C44.0917 26.5066 44.5852 27 45.194 27H55.2372C55.846 27 56.3394 26.5066 56.3394 25.898V15.8571C56.3394 15.2484 55.846 14.7551 55.2372 14.7551Z" fill="#0075FF"/>
    </svg>
    