<svg width="499" height="556" viewBox="0 0 499 556" fill="none" xmlns="http://www.w3.org/2000/svg">
    <path d="M73.5 0V9M0 171C13.3333 171 43.4 171 57 171C70.6 171 73.6667 160.333 73.5 155V9M73.5 96C73.6667 101.333 70.6 112 57 112C43.4 112 13.3333 112 0 112M73.5 119.5C73.6667 124.833 73.9 135.5 87.5 135.5C98.5 135.5 135 135.5 135 135.5C139.333 135.667 148 139.1 148 151.5C148 158.671 148 170.76 148 182M148 203C148 197.94 148 190.195 148 182M148 203C146.167 202.833 142.5 203.5 142.5 208C142.5 212.4 146.167 213.5 148 213.5C149.833 213.5 153.5 212.5 153.5 208C153.5 203.5 149.833 203 148 203ZM148 182C147.5 184.833 144.2 190.5 135 190.5C125.8 190.5 109.167 190.5 102 190.5C97.3333 190.5 88 194 88 208C88 222 88 235.833 88 241M148 182C148.667 184.833 151.8 190.5 159 190.5C166.2 190.5 185 190.5 193.5 190.5C198.333 190.667 208 194.5 208 208.5C208 222.5 208 236.333 208 241.5M208 241.5H201.5L208 252.5L214.5 241.5H208ZM73.5 9C75 25.6667 87.3 59 124.5 59C135.853 59 146.656 59 156.5 59M251.5 103C251.1 69.4 219.667 59.6667 204 59C196.357 59 178.913 59 156.5 59M251.5 103H311M251.5 103V129M311 103C323.5 104 348.4 99.5 348 73.5V36C348.333 27 354.9 9 378.5 9C402.1 9 454.333 9 477.5 9V4H488V14.5H477.5V9.5M311 103C313.5 102.833 318.6 105 319 115C319.4 125 332.167 126.5 338.5 126H488C488.167 124.333 489.5 121 493.5 121C497.5 121 498.833 124.333 499 126C499.167 128 498.3 132 493.5 132C488.7 132 487.833 128.333 488 126.5M251.5 308.668H257.5V319H245.5V308.668H251.5ZM251.5 308.668V197.5M251.5 129C253.833 143.667 267.8 173.1 305 173.5C311.166 173.566 317.371 173.615 323.5 173.65M251.5 129V197.5M447.5 489.5C450.5 489.5 453 491.5 453 495C453 498.5 449.5 500 447.5 500C445.5 500 442 498.5 442 495C442 491.5 444.5 489.5 447.5 489.5ZM447.5 489.5C447.5 438.097 447.5 345.378 447.5 281.5M156.5 59C164.167 59.3333 179.5 65.4 179.5 87C179.5 108.6 179.5 116 179.5 117M179.5 117H184.5V127H174.5V117H179.5ZM251.5 197.5C252.333 202.5 256.7 212.5 267.5 212.5C278.3 212.5 284 212.5 285.5 212.5C289.667 212.667 298 216.6 298 231C298 245.4 298 369.333 298 429.5M298 429.5H303.5L298 440L291.5 429.5H298ZM323.5 173.65C354.348 173.824 383.264 173.639 395.5 173.5C412.833 173.167 447.5 182.4 447.5 222C447.5 233.588 447.5 255.076 447.5 281.5M323.5 173.65C331.167 174.433 346.5 181.4 346.5 203C346.5 215.59 346.5 267.18 346.5 321M346.5 426.5C348.5 426.5 352.5 427.7 352.5 432.5C352.5 437.3 348.5 438.167 346.5 438C344.5 438.167 340.5 437.3 340.5 432.5C340.5 427.7 344.5 426.5 346.5 426.5ZM346.5 426.5C346.5 399.177 346.5 359.518 346.5 321M346.5 321C347.333 325.333 351.9 334 363.5 334C375.1 334 378.333 334 378.5 334C383.167 334.167 392.5 337.4 392.5 349C392.5 360.6 392.5 483.833 392.5 544M392.5 544H397.5V554.5H387V544H392.5ZM447.5 281.5C448.5 286.833 452.9 297.5 462.5 297.5C472.1 297.5 479.5 302.5 482 305C484.833 307.833 490.5 316.2 490.5 327C490.5 337.8 490.5 377.833 490.5 396.5M490.5 396.5H496.5L490.5 407L484 396.5H490.5Z" stroke="url(#paint0_radial_95_578)" stroke-width="2" stroke-linejoin="round"/>
    <defs>
    <radialGradient id="paint0_radial_95_578" cx="0" cy="0" r="1" gradientUnits="userSpaceOnUse" gradientTransform="translate(499 3.67384e-05) rotate(131.959) scale(746.342 671.666)">
    <stop stop-color="#0075FF"/>
    <stop offset="0.576666" stop-color="#E6F1FF"/>
    </radialGradient>
    </defs>
</svg>